<?xml version="1.0" encoding="utf-8"?>
<svg xmlns="http://www.w3.org/2000/svg"
	xmlns:xlink="http://www.w3.org/1999/xlink"
	width="136px" height="74px" viewBox="0 0 136 74">
<style type="text/css"><![CDATA[
.style0 {
  font-size: 28.3564px;
  font-family: "SimploCapsDEMO-Regular";
  fill: rgb(91,91,91);
  text-transform: uppercase;
}
.style1 {
  font-size: 28.3564px;
  font-family: "SimploCapsDEMO-Regular";
  fill: rgb(255,255,255);
  text-transform: uppercase;
}
]]></style>
<filter filterUnits="objectBoundingBox" x="0.00" y="0.00" width="89.06" height="98.36" id="filter0">
<feImage x="0" y="0" width="128" height="61" preserveApectRatio="none" xlink:href="#symbol0"/>
<feComposite in="grImage1" in2="SourceAlpha" operator="in" result="grOverlay1"/>
<feBlend in="grOverlay1" in2="SourceGraphic" mode="normal" result="gradientOverlay1"/>
</filter>
<linearGradient id="linear_PSgrad_0" x1="0%" y1="47.3796%" x2="100%" y2="52.6204%">
    <stop offset="0%" stop-color="rgb(65,65,65)" stop-opacity="1" />
    <stop offset="100%" stop-color="rgb(143,143,143)" stop-opacity="1" />
</linearGradient>

<defs>
<rect x="0" y="0" width="128" height="61" id="symbol0" fill="url(#linear_PSgrad_0)"/></defs>
<g><path fillRule="evenodd" d="M 112.06 71.3C 112.06 71.3 12.51 71.3 12.51 71.3 6.71 71.3 2.01 66.68 2.01 60.97 2.01 55.26 6.71 50.63 12.51 50.63 12.51 50.63 112.06 50.63 112.06 50.63 112.06 50.63 112.06 71.3 112.06 71.3Z" fill="rgb(239,239,239)"/><path fillRule="evenodd" d="M 113.78 68.2C 113.78 68.2 113.78 69.12 113.78 69.12 113.78 69.12 5.26 69.12 5.26 69.12 5.26 69.12 5.26 68.2 5.26 68.2 5.26 68.2 113.78 68.2 113.78 68.2Z" fill="rgb(215,215,215)"/><path fillRule="evenodd" d="M 112.86 66.35C 112.86 66.35 112.86 67.27 112.86 67.27 112.86 67.27 4.34 67.27 4.34 67.27 4.34 67.27 4.34 66.35 4.34 66.35 4.34 66.35 112.86 66.35 112.86 66.35Z" fill="rgb(215,215,215)"/><path fillRule="evenodd" d="M 112.39 64.5C 112.39 64.5 112.39 65.42 112.39 65.42 112.39 65.42 4.34 65.42 4.34 65.42 4.34 65.42 4.34 64.5 4.34 64.5 4.34 64.5 112.39 64.5 112.39 64.5Z" fill="rgb(215,215,215)"/><path fillRule="evenodd" d="M 112.39 57.09C 112.39 57.09 112.39 58.02 112.39 58.02 112.39 58.02 4.34 58.02 4.34 58.02 4.34 58.02 4.34 57.09 4.34 57.09 4.34 57.09 112.39 57.09 112.39 57.09Z" fill="rgb(215,215,215)"/><path fillRule="evenodd" d="M 111.93 62.65C 111.93 62.65 111.93 63.57 111.93 63.57 111.93 63.57 3.41 63.57 3.41 63.57 3.41 63.57 3.41 62.65 3.41 62.65 3.41 62.65 111.93 62.65 111.93 62.65Z" fill="rgb(215,215,215)"/><path fillRule="evenodd" d="M 111.93 60.79C 111.93 60.79 111.93 61.72 111.93 61.72 111.93 61.72 3.41 61.72 3.41 61.72 3.41 61.72 3.41 60.79 3.41 60.79 3.41 60.79 111.93 60.79 111.93 60.79Z" fill="rgb(215,215,215)"/><path fillRule="evenodd" d="M 111.81 58.94C 111.81 58.94 111.81 59.87 111.81 59.87 111.81 59.87 3.41 59.87 3.41 59.87 3.41 59.87 3.41 58.94 3.41 58.94 3.41 58.94 111.81 58.94 111.81 58.94Z" fill="rgb(215,215,215)"/><path fillRule="evenodd" d="M 112.86 55.24C 112.86 55.24 112.86 56.17 112.86 56.17 112.86 56.17 4.34 56.17 4.34 56.17 4.34 56.17 4.34 55.24 4.34 55.24 4.34 55.24 112.86 55.24 112.86 55.24Z" fill="rgb(215,215,215)"/><path fillRule="evenodd" d="M 113.78 53.39C 113.78 53.39 113.78 54.32 113.78 54.32 113.78 54.32 5.26 54.32 5.26 54.32 5.26 54.32 5.26 53.39 5.26 53.39 5.26 53.39 113.78 53.39 113.78 53.39Z" fill="rgb(215,215,215)"/><path fillRule="evenodd" d="M 113.73 51.6C 113.73 51.6 12.26 51.57 12.26 51.57 7.15 51.57 3.01 55.95 3.01 61.06 3.01 66.17 7.15 70.32 12.26 70.32 12.26 70.32 113.73 70.19 113.73 70.19 113.73 70.19 113.73 73 113.73 73 113.73 73 11.8 73 11.8 73 5.28 73 0 67.25 0 60.74 0 54.22 5.28 48.94 11.8 48.94 11.8 48.94 113.73 48.94 113.73 48.94 113.73 48.94 113.73 51.6 113.73 51.6Z" fill="rgb(73,73,73)"/><path fillRule="evenodd" d="M 114.03 24.87C 114.03 24.87 113.73 24.87 113.73 24.87 113.73 24.87 113.84 50.42 113.84 50.42 113.84 50.42 108.66 50.6 108.66 50.6 108.66 50.6 13.14 50.05 7.4 51.34 1.67 52.64 0.37 60.04 0.37 60.04 0.37 60.04 0.19 14.68 0.19 14.68 0.07 14-0 13.31-0 12.61-0 6.09 5.28 0.81 11.8 0.81 11.8 0.81 114.03 0.81 114.03 0.81 114.03 0.81 114.03 24.87 114.03 24.87Z" fill="rgb(77,149,209)" filter="url(#filter0)"/><path fillRule="evenodd" d="M 11.76 57.48C 11.76 57.48 24.29 57.48 24.29 57.48 24.29 57.48 24 67.33 24 67.33 24 67.33 17.86 63.57 17.86 63.57 17.86 63.57 12 67.33 12 67.33" fill="rgb(121,177,95)"/><text transform="matrix(0.00,-0.74,0.74,0.00,134.88,75.27)" class="style0"><tspan x="0.00 19.54 38.20 51.58 58.36 77.01" fill="rgb(90,90,90)">online</tspan></text><text transform="translate(16.00,39.00)" class="style1"><tspan x="0.00 15.37 34.91 54.44 69.81 83.79" fill="rgb(255,255,255)">Books </tspan></text></g></svg>