<?xml version="1.0" encoding="utf-8"?>
<svg xmlns="http://www.w3.org/2000/svg"
	xmlns:xlink="http://www.w3.org/1999/xlink"
	width="12px" height="12px" viewBox="0 0 25 25">
<path fillRule="evenodd" d="M 12.5-0C 5.6-0-0 5.6-0 12.5-0 19.4 5.6 25 12.5 25 19.4 25 25 19.4 25 12.5 25 5.6 19.4-0 12.5-0ZM 17.02 19.45C 17.02 19.45 12.44 17.04 12.44 17.04 12.44 17.04 7.87 19.45 7.87 19.45 7.87 19.45 8.74 14.35 8.74 14.35 8.74 14.35 5.03 10.74 5.03 10.74 5.03 10.74 10.15 10 10.15 10 10.15 10 12.44 5.36 12.44 5.36 12.44 5.36 14.73 10 14.73 10 14.73 10 19.85 10.74 19.85 10.74 19.85 10.74 16.15 14.35 16.15 14.35 16.15 14.35 17.02 19.45 17.02 19.45Z" fill="rgb(65,65,65)"/></svg>